<svg xmlns="http://www.w3.org/2000/svg" width="1060" height="1486" viewBox="0 0 1060 1486">
    <defs>
        <linearGradient id="a" x1="50%" x2="50%" y1="0%" y2="100%">
            <stop offset="0%" stop-color="#14F2B5"/>
            <stop offset="53.148%" stop-color="#42CFBD"/>
            <stop offset="100%" stop-color="#57E2D9"/>
        </linearGradient>
    </defs>
    <path fill="url(#a)" fill-rule="evenodd" d="M380 0c16.567 41.973 30.569 71.64 42.005 89 25.903 39.323 61.482 71.158 86.01 89 23.807 17.318 42.477 26.8 69.007 40 14.36 7.145 58.848 17.602 99.011 24 19.455 3.1 39.283 3.534 58.007 6 29.246 3.851 55.176 11.527 68.007 16 38.005 13.248 59.776 28.103 83.01 47 5.326 4.332 27.343 24.41 30.003 27 18.867 15.081 25.974 32.244 38.004 50 15.866 23.416 25.461 49.393 36.004 81 22.082 66.2 10.6 142.878-30.003 218.261-10.89 20.22-34.56 49.66-71.008 88.322-27.955 21.391-48.624 35.817-62.007 43.278C733.118 870.667 678 988.2 668.859 1045.848c-16.674 105.15 17.05 266.15 127.812 340.04 15.621 10.42 9.789 7.678 27.003 19.43 29.746 20.308 82.986 48.486 116.389 58.292 77.743 22.825 118.159 23.117 155.641 22.08 3.172-.087 48.468-3.532 51.006-3.532 7.293 0 16.343-2.358 27.003-4.416 34.145-6.591 82.855-21.832 127.014-44.161 42.011-21.243 85.01-59.176 106.012-79.49 21.002-20.314 31.746-38.833 34.004-41.511.99-1.176 1.743-438.37 2.257-1311.58L380 0z" transform="translate(-380)"/>
</svg>
