<svg xmlns="http://www.w3.org/2000/svg" width="228" height="67" viewBox="0 0 228 67">
    <g fill="none" fill-rule="evenodd">
        <path fill="#36DAC3" stroke="#36DAC3" stroke-width="2.516" d="M23.283 19.969v2.57c0 4.034-1.833 5.867-5.873 5.867H7.87c-4.037 0-5.87-1.833-5.87-5.868V7.871C2 3.833 3.833 2 7.87 2h9.54c4.04 0 5.873 1.833 5.873 5.87v2.562h-3.3V7.87c0-2.022-.552-2.792-2.573-2.792H7.87c-2.022 0-2.573.77-2.573 2.792v14.667c0 2.013.55 2.785 2.574 2.785h9.54c2.02 0 2.571-.772 2.571-2.785V19.97h3.3zM51.404 7.87c0-2.02-.55-2.791-2.57-2.791h-9.545c-2.013 0-2.564.77-2.564 2.791v14.667c0 2.014.551 2.785 2.564 2.785h9.544c2.021 0 2.571-.771 2.571-2.785V7.87zm3.296 0v14.667c0 4.036-1.827 5.87-5.867 5.87H39.29c-4.025 0-5.872-1.834-5.872-5.87V7.87c0-4.035 1.847-5.87 5.872-5.87h9.544c4.04 0 5.867 1.835 5.867 5.87zM84.83 7.87c0-2.02-.552-2.791-2.557-2.791H70.158v20.243h12.115c2.005 0 2.557-.771 2.557-2.785V7.87zm3.313 0v14.667c0 4.036-1.842 5.87-5.87 5.87H66.861V2h15.412c4.028 0 5.87 1.835 5.87 5.87zM119.56 2v20.538c0 4.035-1.833 5.868-5.873 5.868h-9.538c-4.042 0-5.871-1.833-5.871-5.868V2h3.294v20.538c0 2.013.55 2.785 2.577 2.785h9.538c2.02 0 2.573-.772 2.573-2.785V2h3.3zM164.152 7.87v20.536h-3.413V7.87c0-2.02-.568-2.791-2.645-2.791h-6.818c-2.08 0-2.648.77-2.648 2.791v20.536h-3.409V7.87c0-2.02-.57-2.791-2.65-2.791h-6.818c-2.083 0-2.644.77-2.644 2.791v20.536h-3.412V7.87c0-4.035 1.894-5.87 6.056-5.87h6.819c3.971 0 4.167 2.565 4.167 2.565h.372S147.305 2 151.276 2h6.818c4.156 0 6.058 1.835 6.058 5.87z"/>
        <path fill="#FFF" d="M19.982 52.99L7.871 57.02c-2.194.737-2.57 1.543-2.57 4.112 0 2.014.55 2.785 2.57 2.785h9.54c2.02 0 2.571-.771 2.571-2.785v-8.141zm3.3-6.526v14.668c0 4.036-1.832 5.868-5.87 5.868H7.87C3.844 67 2 65.168 2 61.132c0-4.765 1.47-5.907 5.87-7.377l12.112-4.027v-3.264c0-2.02-.551-2.791-2.57-2.791H7.87c-2.02 0-2.57.77-2.57 2.791v2.563H2v-2.563c0-4.036 1.844-5.87 5.87-5.87h9.542c4.038 0 5.87 1.834 5.87 5.87zM55.713 58.563v2.57c0 4.034-1.832 5.867-5.872 5.867h-9.543c-4.03 0-5.868-1.833-5.868-5.868V46.464c0-4.037 1.838-5.87 5.868-5.87h9.543c4.04 0 5.872 1.833 5.872 5.87v2.561h-3.297v-2.56c0-2.023-.553-2.792-2.575-2.792h-9.543c-2.02 0-2.57.77-2.57 2.791v14.668c0 2.013.55 2.785 2.57 2.785h9.543c2.022 0 2.575-.772 2.575-2.785v-2.57h3.297zM84.835 52.99l-12.106 4.03c-2.205.737-2.566 1.543-2.566 4.112 0 2.014.551 2.785 2.566 2.785h9.549c2.006 0 2.557-.771 2.557-2.785v-8.141zm3.308-6.526v14.668c0 4.036-1.832 5.868-5.865 5.868h-9.549c-4.036 0-5.868-1.832-5.868-5.868 0-4.765 1.469-5.907 5.868-7.377l12.106-4.027v-3.264c0-2.02-.55-2.791-2.557-2.791h-9.549c-2.015 0-2.566.77-2.566 2.791v2.563H66.86v-2.563c0-4.036 1.832-5.87 5.868-5.87h9.549c4.033 0 5.865 1.834 5.865 5.87zM116.252 46.464c0-2.02-.541-2.791-2.56-2.791h-12.116v20.243h12.116c2.019 0 2.56-.771 2.56-2.785V46.464zm3.309 0v14.667c0 4.036-1.83 5.869-5.87 5.869H98.279V40.594h15.414c4.038 0 5.869 1.834 5.869 5.87zM134.006 46.464v5.797h14.678v-5.797c0-2.02-.556-2.791-2.564-2.791h-9.54c-2.024 0-2.574.77-2.574 2.791zm0 8.867v5.8c0 2.014.55 2.785 2.575 2.785h9.54c2.007 0 2.563-.771 2.563-2.785v-2.57h3.307v2.57c0 4.036-1.833 5.869-5.87 5.869h-9.54c-4.04 0-5.872-1.833-5.872-5.869V46.464c0-4.036 1.832-5.87 5.872-5.87h9.54c4.037 0 5.87 1.834 5.87 5.87v8.867h-17.985zM195.57 46.464V67h-3.403V46.464c0-2.02-.57-2.791-2.648-2.791h-6.824c-2.08 0-2.647.77-2.647 2.791V67h-3.407V46.464c0-2.02-.57-2.791-2.653-2.791h-6.82c-2.067 0-2.636.77-2.636 2.791V67h-3.42V46.464c0-4.036 1.891-5.87 6.057-5.87h6.82c3.985 0 4.166 2.565 4.166 2.565h.377s.192-2.565 4.163-2.565h6.824c4.156 0 6.05 1.834 6.05 5.87M218.454 58.197V67h-3.236v-8.803l-9.514-17.603h3.695l7.252 13.419h.37l7.285-13.42H228z"/>
    </g>
</svg>
