<svg xmlns="http://www.w3.org/2000/svg" width="244" height="67" viewBox="0 0 244 67">
    <g fill="none" fill-rule="evenodd">
        <path fill="#36DAC3" stroke="#36DAC3" stroke-width="2.396" d="M24.738 21.351v2.767c0 4.345-1.958 6.32-6.274 6.32H8.272C3.958 30.438 2 28.462 2 24.117V8.322C2 3.974 3.958 2 8.272 2h10.192c4.316 0 6.274 1.974 6.274 6.322v2.758h-3.526V8.322c0-2.177-.59-3.006-2.748-3.006H8.272c-2.161 0-2.749.829-2.749 3.006v15.796c0 2.167.588 3 2.75 3h10.191c2.159 0 2.748-.833 2.748-3v-2.767h3.526zM55.325 8.322c0-2.176-.588-3.006-2.747-3.006H42.381c-2.15 0-2.74.83-2.74 3.006v15.795c0 2.169.59 2.999 2.74 2.999h10.197c2.16 0 2.747-.83 2.747-2.999V8.322zm3.52 0v15.795c0 4.346-1.95 6.32-6.267 6.32H42.381c-4.3 0-6.274-1.974-6.274-6.32V8.322C36.107 3.976 38.081 2 42.381 2h10.197c4.317 0 6.268 1.976 6.268 6.322zM90.225 8.322c0-2.176-.59-3.006-2.732-3.006H74.55v21.8h12.943c2.142 0 2.732-.83 2.732-2.999V8.322zm3.54 0v15.795c0 4.346-1.968 6.32-6.272 6.32H71.027V2h16.466c4.304 0 6.272 1.976 6.272 6.322zM127.872 2v22.118c0 4.345-1.958 6.32-6.275 6.32h-10.19c-4.319 0-6.273-1.975-6.273-6.32V2h3.52v22.118c0 2.167.587 3 2.752 3h10.191c2.16 0 2.749-.833 2.749-3V2h3.526zM174.973 8.322v22.115h-3.62V8.323c0-2.176-.602-3.006-2.805-3.006h-7.23c-2.207 0-2.809.83-2.809 3.006v22.115h-3.616V8.323c0-2.176-.603-3.006-2.81-3.006h-7.23c-2.21 0-2.805.83-2.805 3.006v22.115h-3.618V8.323c0-4.346 2.008-6.322 6.422-6.322h7.232c4.211 0 4.42 2.762 4.42 2.762h.393S157.106 2 161.317 2h7.23c4.408 0 6.426 1.976 6.426 6.322z"/>
        <path fill="#030100" d="M21.212 51.913l-12.94 4.339c-2.344.794-2.745 1.662-2.745 4.429 0 2.168.588 2.999 2.745 2.999h10.194c2.157 0 2.746-.83 2.746-3v-8.767zm3.526-7.028V60.68c0 4.346-1.958 6.319-6.272 6.319H8.272C3.97 67 2 65.027 2 60.68c0-5.131 1.57-6.36 6.272-7.944l12.94-4.336v-3.515c0-2.176-.59-3.007-2.746-3.007H8.272c-2.157 0-2.745.83-2.745 3.007v2.76H2v-2.76c0-4.347 1.97-6.322 6.272-6.322h10.194c4.314 0 6.272 1.975 6.272 6.322zM59.658 57.914v2.767c0 4.345-1.957 6.319-6.274 6.319H43.189c-4.307 0-6.27-1.974-6.27-6.32V44.886c0-4.348 1.963-6.322 6.27-6.322h10.195c4.317 0 6.274 1.974 6.274 6.322v2.758h-3.522v-2.758c0-2.178-.591-3.007-2.752-3.007H43.189c-2.158 0-2.746.829-2.746 3.007V60.68c0 2.167.588 2.999 2.746 2.999h10.195c2.16 0 2.752-.832 2.752-3v-2.766h3.522zM89.418 51.913l-12.933 4.339c-2.357.794-2.743 1.662-2.743 4.429 0 2.168.59 2.999 2.743 2.999h10.201c2.144 0 2.732-.83 2.732-3v-8.767zm3.535-7.028V60.68c0 4.346-1.958 6.319-6.267 6.319H76.485c-4.313 0-6.27-1.973-6.27-6.32 0-5.131 1.57-6.36 6.27-7.944L89.418 48.4v-3.515c0-2.176-.588-3.007-2.732-3.007H76.485c-2.153 0-2.743.83-2.743 3.007v2.76h-3.527v-2.76c0-4.347 1.957-6.322 6.27-6.322h10.201c4.309 0 6.267 1.975 6.267 6.322zM123.525 44.884c0-2.176-.577-3.006-2.735-3.006h-12.944v21.8h12.944c2.158 0 2.735-.83 2.735-2.998V44.884zm3.535 0V60.68c0 4.346-1.955 6.32-6.27 6.32h-16.468V38.562h16.468c4.315 0 6.27 1.976 6.27 6.322zM142.765 44.884v6.243h15.681v-6.243c0-2.176-.593-3.006-2.739-3.006h-10.191c-2.164 0-2.751.83-2.751 3.006zm0 9.55v6.246c0 2.168.587 2.998 2.75 2.998h10.192c2.146 0 2.74-.83 2.74-2.998v-2.767h3.533v2.767c0 4.346-1.958 6.32-6.273 6.32h-10.191c-4.316 0-6.274-1.974-6.274-6.32V44.884c0-4.346 1.958-6.322 6.274-6.322h10.191c4.315 0 6.273 1.976 6.273 6.322v9.55h-19.215zM209.08 44.884V67h-3.608V44.884c0-2.176-.604-3.006-2.809-3.006h-7.237c-2.205 0-2.807.83-2.807 3.006V67h-3.613V44.884c0-2.176-.604-3.006-2.813-3.006h-7.233c-2.193 0-2.796.83-2.796 3.006V67h-3.627V44.884c0-4.346 2.006-6.322 6.423-6.322h7.233c4.227 0 4.419 2.763 4.419 2.763h.4s.204-2.763 4.414-2.763h7.237c4.409 0 6.418 1.976 6.418 6.322M233.569 57.52V67h-3.536v-9.48l-10.395-18.958h4.037l7.924 14.452h.404l7.96-14.452H244z"/>
    </g>
</svg>
