<svg xmlns="http://www.w3.org/2000/svg" width="44" height="64" viewBox="0 0 44 64">
    <defs>
        <linearGradient id="a" x1="50%" x2="50%" y1="0%" y2="100%">
            <stop offset="0%" stop-color="#FD96A4"/>
            <stop offset="100%" stop-color="#FC425C"/>
        </linearGradient>
    </defs>
    <path fill="url(#a)" fill-rule="nonzero" d="M37.109 5.933C32.637 1.765 26.772-.32 20.614.04 9.47.758.454 9.885.014 20.737c-.22 6.252 2.272 12.289 6.89 16.601 2.493 2.372 3.74 5.75 3.226 9.199l-.22 1.58c-.146.648 0 1.366.44 1.87.147.215.367.43.66.574v11.283c0 1.222.953 2.156 2.2 2.156h17.374c1.246 0 2.2-.934 2.2-2.156v-11.21c.732-.504 1.246-1.294 1.246-2.229v-.144l-.147-2.73c-.22-3.163.953-6.18 3.226-8.193C41.507 33.242 44 27.564 44 21.599c0-5.964-2.42-11.57-6.891-15.666zm-21.7 53.755v-8.624h12.976v8.624H15.409zm7.404-12.936H21.2V28.714h1.613v18.038zM34.03 34.176a14.5 14.5 0 0 0-4.545 11.57l.073.934h-2.346V28.714h1.686c3.446 0 6.305-2.803 6.305-6.18 0-2.516-2.053-4.528-4.619-4.528-3.885 0-7.038 2.803-7.697 6.396h-1.833c-.587-3.593-3.812-6.396-7.698-6.396-2.566 0-4.618 2.012-4.618 4.528 0 3.377 2.859 6.18 6.304 6.18h1.686v18.038h-2.272c.586-4.67-1.173-9.342-4.619-12.576-3.739-3.522-5.718-8.193-5.571-13.295.293-8.696 7.55-15.954 16.495-16.53 4.911-.287 9.603 1.366 13.196 4.672 3.592 3.306 5.498 7.761 5.498 12.576.146 4.744-1.833 9.343-5.425 12.577zm-6.598-9.774a3.37 3.37 0 0 1 3.152-2.084c.073 0 .22.144.22.216 0 1.006-.88 1.868-1.906 1.868h-1.466zm-10.85 0h-1.466c-1.027 0-1.907-.862-1.907-1.868 0-.072.147-.216.22-.216 1.393 0 2.64.863 3.153 2.084z"/>
</svg>
