<svg xmlns="http://www.w3.org/2000/svg" width="94" height="94" viewBox="0 0 94 94">
    <defs>
        <linearGradient id="a" x1="101.5%" x2=".5%" y1="-.5%" y2="101.5%">
            <stop offset="0%" stop-color="#3023AE"/>
            <stop offset="100%" stop-color="#C86DD7"/>
        </linearGradient>
    </defs>
    <path fill="url(#a)" fill-rule="nonzero" d="M80.8 67.4c-1.4 0-2.8.3-4.1.7l-8-9.2c3.5-2.6 5.8-6.8 5.8-11.5 0-5.2-2.8-9.9-7.2-12.5l10.4-10.4c1.5.7 3.2 1.1 4.9 1.1 6.2 0 11.3-5.1 11.3-11.3 0-6.2-5-11.3-11.3-11.3-6.2 0-11.3 5.1-11.3 11.3 0 2.3.7 4.4 1.9 6.2L64 29.7c-2.1-2.9-5.5-4.8-9.3-4.8-.9 0-1.8.1-2.6.3-2.8-2.9-6.8-4.6-11-4.6-3.8 0-7.2 1.4-9.9 3.7l-7.8-7.2c.8-1.6 1.2-3.3 1.2-5.2C24.6 5.4 19.3.1 12.8.1 6.3.1 1 5.4 1 11.9c0 6.5 5.3 11.7 11.8 11.7 2.4 0 4.7-.7 6.6-2l8.1 7.4c-1 2-1.6 4.2-1.7 6.6-3.8 2.7-6.1 7.1-6.1 11.8 0 2.6.7 5.1 2 7.2l-5.1 5.7c-1.3-.5-2.7-.8-4.2-.8C5.6 59.6 0 65.1 0 71.9c0 6.8 5.5 12.3 12.3 12.3 6.8 0 12.3-5.5 12.3-12.3 0-3.1-1.2-5.9-3.1-8.1l4.2-4.7c2.4 1.7 5.2 2.7 8.4 2.7H43v7.9c-5.3 1.3-9.3 6.2-9.3 11.9 0 6.8 5.5 12.3 12.3 12.3 6.8 0 12.3-5.5 12.3-12.3 0-5.7-4-10.6-9.3-11.9v-7.9h11c1 0 2-.1 2.9-.3l8.6 10c-2 2.2-3.2 5.1-3.2 8.2C68.5 86.5 74 92 80.8 92S93 86.5 93 79.7c0-6.8-5.5-12.3-12.2-12.3zM52.3 81.6c0 3.5-2.8 6.3-6.3 6.3-3.4 0-6.3-2.9-6.3-6.3s2.9-6.3 6.3-6.3 6.3 2.9 6.3 6.3zM82.6 9c2.9 0 5.3 2.4 5.3 5.3s-2.4 5.3-5.3 5.3-5.3-2.4-5.3-5.3S79.7 9 82.6 9zm-69.8 8.6C9.7 17.6 7 15 7 11.9c0-3.2 2.6-5.8 5.8-5.8 3.3 0 5.8 2.5 5.8 5.8 0 3.1-2.6 5.7-5.8 5.7zm-.5 60.6c-3.4 0-6.3-2.9-6.3-6.3s2.9-6.3 6.3-6.3 6.3 2.9 6.3 6.3c0 3.5-2.8 6.3-6.3 6.3zm21.8-22.4c-4.6 0-8.4-3.8-8.4-8.4 0-3.2 1.8-6.1 4.6-7.5 1.2-.6 1.8-1.9 1.6-3.3v-.7c0-5.1 4.2-9.3 9.3-9.3 3 0 5.8 1.4 7.6 3.8.8 1.2 2.4 1.6 3.7 1 .8-.4 1.6-.5 2.4-.5 3 0 5.5 2.5 5.6 5.6 0 1.3.9 2.4 2.1 2.8 3.6 1.1 6 4.4 6 8.1 0 4.6-3.8 8.4-8.4 8.4H34.1zM80.8 86c-3.4 0-6.3-2.9-6.3-6.3s2.9-6.3 6.3-6.3 6.3 2.9 6.3 6.3-2.9 6.3-6.3 6.3z"/>
</svg>
