<svg xmlns="http://www.w3.org/2000/svg" width="70" height="66" viewBox="0 0 70 66">
    <defs>
        <linearGradient id="a" x1="50%" x2="50%" y1="0%" y2="100%">
            <stop offset="0%" stop-color="#FD96A4"/>
            <stop offset="100%" stop-color="#FC425C"/>
        </linearGradient>
    </defs>
    <g fill="url(#a)" fill-rule="nonzero" transform="translate(-277 -1299)">
        <path d="M344.614 1299h-65.228c-1.352 0-2.386 1.046-2.386 2.415v61.17c0 1.369 1.034 2.415 2.386 2.415h65.228c1.352 0 2.386-1.046 2.386-2.415v-61.17c0-1.369-1.034-2.415-2.386-2.415zm-2.387 4.83v9.9h-60.454v-9.9h60.454zm-60.454 56.34v-41.611h60.454v41.612h-60.454z"/>
        <path d="M303.17 1327.815c-.795-1.047-2.306-1.208-3.34-.403l-11.932 9.659c-.557.483-.875 1.127-.875 1.851s.318 1.449.875 1.851l11.932 9.659c.477.322.954.563 1.51.563.717 0 1.433-.322 1.83-.885.796-1.047.637-2.576-.397-3.38l-9.625-7.808 9.704-7.727c1.034-.805 1.193-2.334.318-3.38zM323.534 1327.493c-1.034-.805-2.545-.644-3.34.402-.796 1.046-.637 2.576.397 3.38l9.625 7.808-9.625 7.807c-1.034.805-1.193 2.334-.398 3.38.477.564 1.193.886 1.83.886.557 0 1.034-.16 1.511-.563l11.932-9.659c.557-.483.875-1.127.875-1.851s-.318-1.449-.875-1.851l-11.932-9.74zM315.977 1320.007c-1.272-.322-2.545.483-2.863 1.771l-8.432 33.563a2.401 2.401 0 0 0 1.75 2.898c.159.08.398.08.557.08 1.034 0 2.068-.724 2.306-1.85l8.432-33.564a2.401 2.401 0 0 0-1.75-2.898z"/>
    </g>
</svg>
