<svg xmlns="http://www.w3.org/2000/svg" width="64" height="64" viewBox="0 0 64 64">
    <defs>
        <linearGradient id="a" x1="0%" x2="0%" y1="0%" y2="114.198%">
            <stop offset="0%" stop-color="#3023AE"/>
            <stop offset="100%" stop-color="#C86DD7"/>
        </linearGradient>
        <linearGradient id="b" x1="0%" x2="102%" y1="0%" y2="101%">
            <stop offset="0%" stop-color="#3023AE"/>
            <stop offset="100%" stop-color="#C86DD7"/>
        </linearGradient>
    </defs>
    <g fill="none" fill-rule="nonzero">
        <path fill="url(#a)" d="M53.91 29.235c.829 1.867 2.695 3.18 4.837 3.18A5.25 5.25 0 0 0 64 27.162a5.25 5.25 0 0 0-5.253-5.253c-2.142 0-4.008 1.313-4.838 3.18h-6.29v-6.635c0-1.175-.898-2.074-2.073-2.074h-6.704v-6.082h4.147c.83 1.866 2.696 3.18 4.838 3.18a5.25 5.25 0 0 0 5.253-5.253 5.25 5.25 0 0 0-5.253-5.253c-2.142 0-4.008 1.313-4.838 3.18h-6.22c-1.175 0-2.074.898-2.074 2.073v8.155h-6.22v-6.29c1.866-.829 3.18-2.695 3.18-4.837A5.25 5.25 0 0 0 26.401 0a5.25 5.25 0 0 0-5.253 5.253c0 2.142 1.313 4.008 3.18 4.838v6.29h-5.875c-1.175 0-2.074.898-2.074 2.073v6.565h-6.082v-4.146c1.866-.83 3.18-2.696 3.18-4.838a5.25 5.25 0 0 0-5.253-5.253 5.25 5.25 0 0 0-5.253 5.253c0 2.142 1.313 4.008 3.18 4.838v6.22c0 1.175.898 2.073 2.073 2.073h8.155v6.22h-6.29c-.829-1.865-2.695-3.179-4.837-3.179A5.25 5.25 0 0 0 0 37.46a5.25 5.25 0 0 0 5.253 5.253c2.142 0 4.008-1.313 4.838-3.18h6.29v6.013c0 1.175.898 2.074 2.073 2.074h6.565v6.082h-4.146c-.83-1.866-2.696-3.18-4.838-3.18a5.25 5.25 0 0 0-5.253 5.253 5.25 5.25 0 0 0 5.253 5.253c2.142 0 4.008-1.313 4.838-3.18h6.22c1.175 0 2.073-.898 2.073-2.073V47.62h6.22v6.29c-1.865.829-3.179 2.695-3.179 4.837A5.25 5.25 0 0 0 37.46 64a5.25 5.25 0 0 0 5.253-5.253c0-2.142-1.313-4.008-3.18-4.838v-6.29h6.013c1.175 0 2.074-.898 2.074-2.073v-5.943h6.082v4.146c-1.866.83-3.18 2.696-3.18 4.838a5.25 5.25 0 0 0 5.253 5.253 5.25 5.25 0 0 0 5.253-5.253c0-2.142-1.313-4.008-3.18-4.838v-6.22c0-1.175-.898-2.073-2.073-2.073H47.62v-6.22h6.29zm4.837-3.179c.622 0 1.106.484 1.106 1.106 0 .622-.484 1.106-1.106 1.106a1.092 1.092 0 0 1-1.106-1.106c0-.622.484-1.106 1.106-1.106zM47.827 7.12c.622 0 1.106.484 1.106 1.106 0 .622-.484 1.105-1.106 1.105a1.092 1.092 0 0 1-1.106-1.105c0-.622.484-1.106 1.106-1.106zM26.402 4.147c.622 0 1.106.484 1.106 1.106 0 .622-.484 1.106-1.106 1.106a1.092 1.092 0 0 1-1.106-1.106c0-.622.484-1.106 1.106-1.106zM8.225 14.929c.622 0 1.105.484 1.105 1.106 0 .622-.483 1.105-1.105 1.105a1.092 1.092 0 0 1-1.106-1.105c0-.622.484-1.106 1.106-1.106zM5.253 38.566a1.092 1.092 0 0 1-1.106-1.106c0-.622.484-1.106 1.106-1.106.622 0 1.106.484 1.106 1.106 0 .622-.484 1.106-1.106 1.106zM16.035 56.88a1.092 1.092 0 0 1-1.106-1.106c0-.622.484-1.105 1.106-1.105.622 0 1.105.483 1.105 1.105s-.483 1.106-1.105 1.106zm21.425 2.972a1.092 1.092 0 0 1-1.106-1.106c0-.622.484-1.106 1.106-1.106.622 0 1.106.484 1.106 1.106 0 .622-.484 1.106-1.106 1.106zm18.315-10.16a1.092 1.092 0 0 1-1.105-1.106c0-.622.483-1.105 1.105-1.105s1.106.483 1.106 1.105c0 .623-.484 1.106-1.106 1.106zm-12.302-6.22H20.527V20.527h22.946v22.946z"/>
        <path fill="url(#b)" d="M25.19 40.37h13.128c1.162 0 2.051-.89 2.051-2.052V25.19c0-1.163-.889-2.052-2.051-2.052H25.19c-1.163 0-2.052.89-2.052 2.052v13.128c0 1.162.89 2.051 2.052 2.051zM27.24 27.24h9.026v9.026H27.24V27.24z"/>
    </g>
</svg>
