<svg xmlns="http://www.w3.org/2000/svg" width="64" height="64" viewBox="0 0 64 64">
    <defs>
        <linearGradient id="a" x1="50%" x2="50%" y1="0%" y2="100%">
            <stop offset="0%" stop-color="#B4EC51"/>
            <stop offset="100%" stop-color="#429321"/>
        </linearGradient>
    </defs>
    <g fill="url(#a)" fill-rule="nonzero" transform="translate(-690 -1296)">
        <path d="M749.12 1333.68c-1.36 0-2.4 1.04-2.4 2.4v18.56h-51.36v-51.36h18.56c1.36 0 2.4-1.04 2.4-2.4 0-1.36-1.04-2.4-2.4-2.4h-20.96c-1.36 0-2.4 1.04-2.4 2.4v56.16c0 1.36 1.04 2.4 2.4 2.4h56.16c1.36 0 2.4-1.04 2.4-2.4v-20.96c0-1.36-1.04-2.4-2.4-2.4z"/>
        <path d="M752.72 1305.84l-8.56-8.56c-.96-.96-2.48-.96-3.36 0l-28.32 28.32c-.32.32-.48.64-.64 1.04l-3.36 11.92c-.24.8 0 1.76.64 2.32.48.48 1.04.72 1.68.72.24 0 .4 0 .64-.08l11.92-3.36c.4-.08.72-.32 1.04-.64l28.32-28.32c.48-.48.72-1.04.72-1.68 0-.64-.24-1.28-.72-1.68zm-37.36 25.92l2.88 2.88-4 1.12 1.12-4zm7.44.64l-5.2-5.2 24.88-24.88 5.2 5.2-24.88 24.88z"/>
    </g>
</svg>
