<svg xmlns="http://www.w3.org/2000/svg" width="77" height="69" viewBox="0 0 77 69">
    <defs>
        <linearGradient id="a" x1="50.006%" x2="50.006%" y1="0%" y2="100.118%">
            <stop offset="0%" stop-color="#00EFD1"/>
            <stop offset="100%" stop-color="#00ACEA"/>
        </linearGradient>
    </defs>
    <path fill="url(#a)" fill-rule="nonzero" d="M76.519 39.073L69.3 23.67C68.98 11.072 57.83.642 44.676.642c-10.347 0-20.132 6.66-23.34 15.806-.482 1.123-1.043 3.37-.963 9.868h-2.406V20.7c0-1.364-1.043-2.407-2.407-2.407H8.983c-1.363 0-2.406 1.043-2.406 2.407v2.567h-3.93C1.283 23.267.24 24.31.24 25.674v10.27c0 1.364 1.042 2.407 2.406 2.407h3.93v2.568c0 1.364 1.043 2.407 2.406 2.407h6.577c1.364 0 2.407-1.043 2.407-2.407v-5.135h2.807c.882 13.399 2.647 30.247 2.647 30.408.16 1.203 1.123 2.166 2.406 2.166H53.98c1.203 0 2.246-.882 2.406-2.166l.963-8.745 8.662-.642c1.284-.08 2.246-1.204 2.246-2.488l-.481-11.312 6.738-.562c.802-.08 1.523-.481 1.925-1.203.4-.642.4-1.445.08-2.167zM5.053 33.537v-5.456h1.524v5.456H5.053zm8.101 4.975H11.39V23.107h1.764v15.405zm51.975-.08c-1.283.08-2.246 1.203-2.246 2.487l.482 11.312-8.342.642c-1.123.08-2.086.963-2.246 2.167l-.962 8.584H27.993c-.482-4.894-1.765-17.33-2.407-27.76h2.728v5.055c0 1.364 1.042 2.407 2.406 2.407h6.577c1.363 0 2.406-1.043 2.406-2.407V38.27h3.85c1.364 0 2.406-1.043 2.406-2.407v-10.19c0-1.364-1.042-2.407-2.406-2.407h-3.85V20.7c0-1.364-1.043-2.407-2.406-2.407H30.72c-1.364 0-2.406 1.043-2.406 2.407v5.616h-3.129c-.08-6.418.482-7.782.562-7.943 0-.08.08-.16.08-.24C28.394 10.83 36.254 5.456 44.676 5.456c10.588 0 19.811 8.745 19.811 18.774 0 .321.08.722.241 1.043l6.016 12.757-5.615.401zm-32.003.08V23.107h1.765v15.405h-1.765zm6.577-10.43h1.444v5.455h-1.444v-5.456z"/>
</svg>
