<svg xmlns="http://www.w3.org/2000/svg" width="19" height="32" viewBox="0 0 19 32">
    <path fill="#FFF" fill-rule="nonzero" d="M13.223 8.468h4.468A1.3 1.3 0 0 0 19 7.176V1.293A1.3 1.3 0 0 0 17.69 0h-4.468C8.395 0 4.468 3.879 4.468 8.646v3.12h-3.16A1.3 1.3 0 0 0 0 13.059v5.882a1.3 1.3 0 0 0 1.309 1.293h3.159v10.473A1.3 1.3 0 0 0 5.777 32h5.957a1.3 1.3 0 0 0 1.309-1.293V20.234h3.159c.6 0 1.124-.403 1.27-.979l1.489-5.883a1.28 1.28 0 0 0-.238-1.109 1.315 1.315 0 0 0-1.032-.497h-4.648v-3.12a.18.18 0 0 1 .18-.178zm-1.49 5.883h4.282l-.835 3.298h-3.446a1.3 1.3 0 0 0-1.31 1.293v10.473H7.087V18.942a1.3 1.3 0 0 0-1.31-1.293H2.619V14.35h3.159a1.3 1.3 0 0 0 1.309-1.292V8.646c0-3.342 2.753-6.06 6.137-6.06h3.16v3.297h-3.16c-1.543 0-2.798 1.24-2.798 2.763v4.413a1.3 1.3 0 0 0 1.309 1.292z"/>
</svg>
