<svg xmlns="http://www.w3.org/2000/svg" width="66" height="64" viewBox="0 0 66 64">
    <defs>
        <linearGradient id="a" x1="50%" x2="50%" y1="0%" y2="100%">
            <stop offset="0%" stop-color="#FAD961"/>
            <stop offset="100%" stop-color="#F76B1C"/>
        </linearGradient>
    </defs>
    <g fill="url(#a)" fill-rule="nonzero" transform="translate(-516 -738)">
        <path d="M581.257 759.77l-8.91-8.84c-.99-.981-2.557-.981-3.465 0l-.247.246v-8.266c0-2.782-2.145-4.91-4.95-4.91H520.95c-2.805 0-4.95 2.128-4.95 4.91v54.18c0 2.782 2.145 4.91 4.95 4.91h42.735c2.805 0 4.95-2.128 4.95-4.91v-21.28l12.622-12.603c.99-.982.99-2.537 0-3.437zm-17.407 37.32h-42.9v-54.18h42.735v13.095l-6.27 6.22h-16.418c-1.402 0-2.475 1.064-2.475 2.455 0 1.392 1.073 2.456 2.475 2.456h11.468l-5.775 5.728h-5.693c-1.402 0-2.475 1.064-2.475 2.456 0 1.391 1.073 2.455 2.475 2.455h3.548l-1.485 5.729h-1.98c-1.403 0-2.475 1.064-2.475 2.455s1.072 2.455 2.475 2.455h1.32c.083.246.248.491.495.655.495.491 1.073.737 1.733.737.247 0 .412 0 .66-.082l12.21-3.192c.412-.082.824-.327 1.154-.655l5.198-5.156v16.369zm-14.768-17.105l2.888 2.864-3.96 1.064 1.072-3.928zm7.673.736l-5.528-5.401 13.365-13.177 5.445 5.402-13.282 13.176zm16.83-16.777l-5.445-5.402 2.475-2.455 5.445 5.401-2.475 2.456z"/>
        <path d="M532.022 751.395h-4.544c-1.404 0-2.478 1.075-2.478 2.481s1.074 2.48 2.478 2.48h4.544c1.404 0 2.478-1.074 2.478-2.48s-1.074-2.48-2.478-2.48zM540.97 756.357h16.06c1.4 0 2.47-1.075 2.47-2.481s-1.07-2.48-2.47-2.48h-16.06c-1.4 0-2.47 1.074-2.47 2.48s1.07 2.48 2.47 2.48zM532.022 762.806h-4.544c-1.404 0-2.478 1.075-2.478 2.48 0 1.407 1.074 2.481 2.478 2.481h4.544c1.404 0 2.478-1.074 2.478-2.48s-1.074-2.48-2.478-2.48zM532.022 773.225h-4.544c-1.404 0-2.478 1.075-2.478 2.48 0 1.406 1.074 2.481 2.478 2.481h4.544c1.404 0 2.478-1.075 2.478-2.48 0-1.406-1.074-2.481-2.478-2.481zM532.022 783.643h-4.544c-1.404 0-2.478 1.075-2.478 2.481s1.074 2.48 2.478 2.48h4.544c1.404 0 2.478-1.074 2.478-2.48s-1.074-2.48-2.478-2.48z"/>
    </g>
</svg>
