<svg xmlns="http://www.w3.org/2000/svg" width="69" height="69" viewBox="0 0 69 69">
    <defs>
        <linearGradient id="a" x1="50%" x2="50%" y1="0%" y2="100%">
            <stop offset="0%" stop-color="#FAD961"/>
            <stop offset="100%" stop-color="#F76B1C"/>
        </linearGradient>
    </defs>
    <path fill="url(#a)" fill-rule="nonzero" d="M58.219 69C64.164 69 69 64.164 69 58.219a2.695 2.695 0 1 0-5.39 0 5.397 5.397 0 0 1-5.391 5.39H37.195V37.33H63.61v7.412a2.695 2.695 0 1 0 5.391 0v-33.96C69 4.835 64.164 0 58.219 0H10.78C4.836 0 0 4.836 0 10.781V58.22C0 64.164 4.836 69 10.781 69H58.22zM5.39 10.781a5.397 5.397 0 0 1 5.39-5.39h21.024v26.548H5.39V10.781zM31.805 63.61H10.78a5.397 5.397 0 0 1-5.39-5.39V37.33h26.414v26.28zm5.39-31.67V5.391H58.22a5.397 5.397 0 0 1 5.39 5.39V31.94H37.195zm-10.78-13.341a2.695 2.695 0 0 1-2.696 2.695h-2.426v2.426a2.695 2.695 0 1 1-5.39 0v-2.426h-2.426a2.695 2.695 0 1 1 0-5.39h2.425v-2.426a2.695 2.695 0 1 1 5.391 0v2.425h2.426a2.695 2.695 0 0 1 2.695 2.696zM10.78 50.402a2.695 2.695 0 0 1 2.696-2.695h10.242a2.695 2.695 0 1 1 0 5.39H13.477a2.695 2.695 0 0 1-2.696-2.695zm5.121-6.738a2.695 2.695 0 1 1 5.39 0 2.695 2.695 0 0 1-5.39 0zm5.391 13.477a2.695 2.695 0 1 1-5.39 0 2.695 2.695 0 0 1 5.39 0zm34.985-8.787l-2.07 2.07 2.07 2.07a2.695 2.695 0 1 1-3.811 3.811l-2.07-2.07-2.07 2.07a2.687 2.687 0 0 1-1.906.79 2.695 2.695 0 0 1-1.906-4.601l2.07-2.07-2.07-2.07a2.695 2.695 0 1 1 3.812-3.812l2.07 2.07 2.07-2.07a2.696 2.696 0 0 1 3.811 3.812zm1.94-29.756a2.695 2.695 0 0 1-2.695 2.695H45.281a2.695 2.695 0 1 1 0-5.39h10.242a2.695 2.695 0 0 1 2.696 2.695z"/>
</svg>
