<svg xmlns="http://www.w3.org/2000/svg" width="26" height="26" viewBox="0 0 26 26">
    <g fill="#2EEBBE" fill-rule="nonzero">
        <path d="M14.174 6.116c-.964-.296-2.087 0-2.89.592C10.482 7.301 10 8.19 10 9.225c0 .445.321.74.803.74.481 0 .802-.295.802-.74 0-.444.16-1.036.642-1.332.482-.296.963-.444 1.606-.296.802.148 1.284.74 1.444 1.332.16.74 0 1.333-.642 1.777-1.284.889-1.926 2.221-1.926 3.554 0 .444.32.74.802.74.482 0 .803-.296.643-.74 0-.889.642-1.777 1.444-2.37 1.124-.888 1.605-2.072 1.284-3.257-.32-1.332-1.444-2.22-2.728-2.517zM12.2 18.286c-.2.19-.2.571-.2.762 0 .19 0 .38.2.571.2.19.6.381.8.381.2 0 .6-.19.6-.38.2 0 .4-.382.4-.572 0-.381-.2-.572-.4-.762a1 1 0 0 0-1.4 0z"/>
        <path d="M13 0C5.812 0 0 5.812 0 13s5.812 13 13 13 13-5.812 13-13S20.188 0 13 0zm0 24.47c-6.27 0-11.47-5.2-11.47-11.47C1.53 6.73 6.73 1.53 13 1.53c6.27 0 11.47 5.2 11.47 11.47 0 6.27-5.2 11.47-11.47 11.47z"/>
    </g>
</svg>
