<svg xmlns="http://www.w3.org/2000/svg" width="32" height="32" viewBox="0 0 32 32">
    <g fill="#FFF" fill-rule="nonzero">
        <path d="M23.354 0H8.646C3.88 0 0 3.879 0 8.646v14.708C0 28.12 3.879 32 8.646 32h14.708C28.12 32 32 28.121 32 23.354V8.646C32 3.88 28.121 0 23.354 0zm6.06 23.354a6.068 6.068 0 0 1-6.06 6.06H8.646a6.068 6.068 0 0 1-6.06-6.06V8.646a6.068 6.068 0 0 1 6.06-6.06h14.708a6.068 6.068 0 0 1 6.06 6.06v14.708z"/>
        <path d="M22.923 14.973a6.95 6.95 0 0 0-1.974-3.923 6.95 6.95 0 0 0-3.922-1.974 6.993 6.993 0 0 0-2.054 0 6.953 6.953 0 0 0-4.594 2.754 6.954 6.954 0 0 0-1.302 5.196 6.954 6.954 0 0 0 2.754 4.595 6.946 6.946 0 0 0 5.196 1.302 6.953 6.953 0 0 0 4.594-2.754 6.953 6.953 0 0 0 1.302-5.196zm-6.266 5.455a4.446 4.446 0 0 1-3.324-.832 4.448 4.448 0 0 1-1.762-2.94 4.448 4.448 0 0 1 .833-3.324A4.448 4.448 0 0 1 16 11.522c.22 0 .439.016.657.048a4.452 4.452 0 0 1 3.772 3.773 4.482 4.482 0 0 1-3.772 5.085zM25.56 7.44A1.51 1.51 0 0 0 24.5 7c-.395 0-.781.16-1.06.44-.28.279-.44.665-.44 1.06s.16.781.44 1.06c.279.28.665.44 1.06.44s.781-.16 1.06-.44c.28-.279.44-.665.44-1.06s-.16-.781-.44-1.06z"/>
    </g>
</svg>
