<svg xmlns="http://www.w3.org/2000/svg" width="80" height="80" viewBox="0 0 80 80">
    <defs>
        <linearGradient id="a" x1="50%" x2="50%" y1="0%" y2="100%">
            <stop offset="0%" stop-color="#FD96A4"/>
            <stop offset="100%" stop-color="#FC425C"/>
        </linearGradient>
    </defs>
    <g fill="url(#a)" fill-rule="nonzero" transform="translate(-143 -2517)">
        <path d="M212.5 2538c5.8 0 10.5-4.7 10.5-10.5s-4.7-10.5-10.5-10.5-10.5 4.7-10.5 10.5 4.7 10.5 10.5 10.5zm0-15c2.5 0 4.5 2 4.5 4.5s-2 4.5-4.5 4.5-4.5-2-4.5-4.5 2-4.5 4.5-4.5z"/>
        <path d="M223 2556.5c0-5.8-4.7-10.5-10.5-10.5-1.9 0-3.7.5-5.2 1.4L192 2532c.7-1.4 1-2.9 1-4.5 0-5.8-4.7-10.5-10.5-10.5s-10.5 4.7-10.5 10.5 4.7 10.5 10.5 10.5c2 0 3.8-.6 5.4-1.5l15.2 15.3c-.7 1.4-1.1 3-1.1 4.7 0 4.9 3.4 9.1 8 10.2v9.6c-4.6 1.1-8 5.3-8 10.2 0 5.8 4.7 10.5 10.5 10.5s10.5-4.7 10.5-10.5c0-4.6-2.9-8.4-7-9.9v-10.2c4.1-1.5 7-5.3 7-9.9zm-45-29c0-2.5 2-4.5 4.5-4.5s4.5 2 4.5 4.5-2 4.5-4.5 4.5-4.5-2-4.5-4.5zm30 29c0-2.5 2-4.5 4.5-4.5s4.5 2 4.5 4.5-2 4.5-4.5 4.5-4.5-2-4.5-4.5zm4.5 34.5c-2.5 0-4.5-2-4.5-4.5s2-4.5 4.5-4.5 4.5 2 4.5 4.5-2 4.5-4.5 4.5z"/>
        <path d="M193 2556.5c0-5.8-4.7-10.5-10.5-10.5s-10.5 4.7-10.5 10.5c0 4.9 3.4 9.1 8 10.2v9.6c-1.6.4-3.1 1.2-4.3 2.2l-14.7-14.7c1.9-1.9 3-4.5 3-7.3 0-4.9-3.4-9.1-8-10.2v-8.6c4.6-1.1 8-5.3 8-10.2 0-5.8-4.7-10.5-10.5-10.5s-10.5 4.7-10.5 10.5c0 4.6 2.9 8.4 7 9.9v9.2c-4.1 1.4-7 5.3-7 9.9 0 5.8 4.7 10.5 10.5 10.5.7 0 1.3-.1 2-.2l16.9 16.9c-.2.9-.4 1.8-.4 2.8 0 5.8 4.7 10.5 10.5 10.5s10.5-4.7 10.5-10.5c0-4.6-2.9-8.4-7-9.9v-10.2c4.1-1.5 7-5.3 7-9.9zm-15 0c0-2.5 2-4.5 4.5-4.5s4.5 2 4.5 4.5-2 4.5-4.5 4.5-4.5-2-4.5-4.5zm-24.5-33.5c2.5 0 4.5 2 4.5 4.5s-2 4.5-4.5 4.5-4.5-2-4.5-4.5 2-4.5 4.5-4.5zm-4.5 33.5c0-2.5 2-4.5 4.5-4.5s4.5 2 4.5 4.5-2 4.5-4.5 4.5-4.5-2-4.5-4.5zm33.5 34.5c-2.5 0-4.5-2-4.5-4.5s2-4.5 4.5-4.5 4.5 2 4.5 4.5-2 4.5-4.5 4.5z"/>
        <path d="M153.5 2576c-5.8 0-10.5 4.7-10.5 10.5s4.7 10.5 10.5 10.5 10.5-4.7 10.5-10.5-4.7-10.5-10.5-10.5zm0 15c-2.5 0-4.5-2-4.5-4.5s2-4.5 4.5-4.5 4.5 2 4.5 4.5-2 4.5-4.5 4.5z"/>
    </g>
</svg>
