<svg xmlns="http://www.w3.org/2000/svg" width="42" height="42" viewBox="0 0 42 42">
    <defs>
        <linearGradient id="a" x1="50%" x2="50%" y1="-16.875%" y2="102.05%">
            <stop offset="0%" stop-color="#F3C5B1"/>
            <stop offset="100%" stop-color="#FF7C68"/>
        </linearGradient>
        <linearGradient id="b" x1="50%" x2="50%" y1="-19.445%" y2="1409.64%">
            <stop offset="0%" stop-color="#F1A296"/>
            <stop offset="100%" stop-color="#F3C5B1"/>
        </linearGradient>
    </defs>
    <g fill="none" fill-rule="nonzero">
        <path fill="url(#a)" d="M40.3 5.75H1.7c-.85 0-1.5.65-1.5 1.5V33.4c0 .85.65 1.5 1.5 1.5h13.9l-5.3 4.25c-.65.5-.75 1.45-.25 2.1.3.35.75.55 1.15.55.35 0 .65-.1.95-.35l8.25-6.55h1.1l8.3 6.5a1.498 1.498 0 0 0 2.1-.3c.5-.65.4-1.6-.25-2.1l-5.25-4.1h13.85c.85 0 1.5-.65 1.5-1.5V7.25c.05-.85-.65-1.5-1.45-1.5zM3.2 31.9V8.75h35.55V31.9H3.2z"/>
        <path fill="url(#b)" d="M6.15 3.25H35.9c.85 0 1.5-.65 1.5-1.5s-.65-1.5-1.5-1.5H6.15c-.85 0-1.5.65-1.5 1.5s.7 1.5 1.5 1.5zM33.95 11.75h-8.3c-.85 0-1.5.65-1.5 1.5s.65 1.5 1.5 1.5h4.7L26.5 18.6 25 17c-.6-.6-1.55-.6-2.1 0l-6.25 6.2-1.85-1.85c-.6-.6-1.55-.6-2.1 0L6.85 27.1c-.6.6-.6 1.55 0 2.1.3.35.7.5 1.05.5.4 0 .75-.15 1.05-.45l4.8-4.75 1.85 1.85c.6.6 1.55.6 2.1 0l6.2-6.2 1.55 1.55c.6.6 1.55.6 2.1 0l4.9-4.85v4.65c0 .85.65 1.5 1.5 1.5s1.5-.65 1.5-1.5v-8.25c0-.85-.65-1.5-1.5-1.5z"/>
    </g>
</svg>
