<svg xmlns="http://www.w3.org/2000/svg" width="67" height="67" viewBox="0 0 67 67">
    <defs>
        <linearGradient id="a" x1="50%" x2="50%" y1="0%" y2="100%">
            <stop offset="0%" stop-color="#FAD961"/>
            <stop offset="100%" stop-color="#F76B1C"/>
        </linearGradient>
    </defs>
    <path fill="url(#a)" fill-rule="nonzero" d="M67 7.852v7.72a2.615 2.615 0 0 1-2.612 2.617 2.615 2.615 0 0 1-2.612-2.617V9.066L42.726 28.15c-1.523 1.527-3.598 2.38-5.688 2.34-2.01-.037-3.925-.868-5.394-2.34l-3.071-3.077c-.534-.535-1.217-.858-1.825-.863-.64-.006-1.35.327-1.896.89l-.023.023-5.608 5.644c-.51.514-1.18.771-1.85.771a2.6 2.6 0 0 1-1.844-.762 2.62 2.62 0 0 1-.008-3.702l5.598-5.633c1.527-1.57 3.57-2.465 5.616-2.465h.058c1.976.016 3.972.89 5.476 2.396l3.07 3.077c.502.502 1.157.796 1.799.808h.042c.666 0 1.34-.292 1.854-.808l19.18-19.214h-6.884a2.615 2.615 0 0 1-2.613-2.617A2.615 2.615 0 0 1 51.328 0h7.836C63.484 0 67 3.522 67 7.852zM5.932 37.042L.737 42.409a2.62 2.62 0 0 0 .056 3.7 2.6 2.6 0 0 0 1.819.74c.682 0 1.363-.266 1.875-.795l5.195-5.365a2.62 2.62 0 0 0-.057-3.701 2.608 2.608 0 0 0-3.693.056zm12.091 1.692a2.615 2.615 0 0 0-2.612 2.617v23.032A2.615 2.615 0 0 0 18.023 67a2.615 2.615 0 0 0 2.613-2.617V41.35a2.615 2.615 0 0 0-2.613-2.617zm10.188-5.757a2.615 2.615 0 0 0-2.613 2.617v28.789A2.615 2.615 0 0 0 28.211 67a2.615 2.615 0 0 0 2.612-2.617v-28.79a2.615 2.615 0 0 0-2.612-2.616zM7.714 50.512a2.615 2.615 0 0 0-2.62 2.617v11.254A2.615 2.615 0 0 0 7.704 67a2.615 2.615 0 0 0 2.613-2.617V53.129a2.615 2.615 0 0 0-2.604-2.617zm40.992-19.237a2.615 2.615 0 0 0-2.603 2.617v30.49A2.615 2.615 0 0 0 48.715 67a2.615 2.615 0 0 0 2.613-2.617v-30.49a2.615 2.615 0 0 0-2.622-2.618zm10.327-8.898a2.615 2.615 0 0 0-2.612 2.617v39.389A2.615 2.615 0 0 0 59.033 67a2.615 2.615 0 0 0 2.612-2.617V24.994a2.615 2.615 0 0 0-2.612-2.617zM38.398 36.248a2.615 2.615 0 0 0-2.613 2.617v25.518A2.615 2.615 0 0 0 38.398 67a2.615 2.615 0 0 0 2.612-2.617V38.865a2.615 2.615 0 0 0-2.612-2.617z"/>
</svg>
