<svg xmlns="http://www.w3.org/2000/svg" width="33" height="42" viewBox="0 0 33 42">
    <defs>
        <linearGradient id="a" x1="50%" x2="50%" y1="0%" y2="100%">
            <stop offset="0%" stop-color="#6184FA"/>
            <stop offset="100%" stop-color="#1CCEF7"/>
        </linearGradient>
        <linearGradient id="b" x1="50%" x2="50%" y1="0%" y2="100%">
            <stop offset="0%" stop-color="#5679FF"/>
            <stop offset="100%" stop-color="#33ABFF"/>
        </linearGradient>
    </defs>
    <g fill="none" fill-rule="nonzero">
        <path fill="url(#a)" d="M32.474 14.852l-3.163-3.3.637-4.546a1.3 1.3 0 0 0-1.053-1.464l-4.48-.793L22.285.692a1.283 1.283 0 0 0-1.705-.56L16.495 2.15 12.409.133a1.283 1.283 0 0 0-1.705.56l-2.13 4.056-4.48.793A1.3 1.3 0 0 0 3.04 7.006l.637 4.546-3.162 3.3a1.31 1.31 0 0 0 0 1.81l3.162 3.3-.637 4.548a1.3 1.3 0 0 0 1.054 1.465l3.585.634v14.078c0 .45.231.87.611 1.107a1.278 1.278 0 0 0 1.254.057l6.95-3.508 6.95 3.508c.4.202.874.18 1.254-.057s.612-.656.612-1.107V26.609l3.585-.634a1.3 1.3 0 0 0 1.054-1.465l-.637-4.548 3.162-3.3a1.311 1.311 0 0 0 0-1.81zM17.07 35.723a1.278 1.278 0 0 0-1.153 0l-5.661 2.858v-8.61l.448.853c.325.62 1.08.867 1.705.559l4.085-2.018 4.084 2.018a1.288 1.288 0 0 0 1.705-.559l.448-.851v8.608l-5.66-2.858zm9.95-17.114a1.31 1.31 0 0 0-.35 1.088l.55 3.931-3.87.685a1.29 1.29 0 0 0-.917.672l-1.843 3.506-3.53-1.744a1.28 1.28 0 0 0-1.133 0l-3.53 1.744-1.843-3.506a1.29 1.29 0 0 0-.916-.672l-3.871-.685.55-3.931a1.31 1.31 0 0 0-.35-1.088l-2.733-2.852 2.733-2.852a1.31 1.31 0 0 0 .35-1.088l-.55-3.928 3.871-.686c.392-.07.73-.317.917-.672l1.842-3.507 3.53 1.743c.358.176.776.176 1.133 0l3.53-1.743 1.843 3.507c.186.355.524.603.916.672l3.87.685-.55 3.93a1.31 1.31 0 0 0 .35 1.087l2.733 2.852-2.733 2.852z"/>
        <path fill="url(#b)" d="M16.495 6.857c-4.861 0-8.816 3.992-8.816 8.9 0 4.91 3.955 8.903 8.816 8.903 4.86 0 8.814-3.994 8.814-8.903 0-4.908-3.954-8.9-8.814-8.9zm0 15.2c-3.44 0-6.238-2.826-6.238-6.3 0-3.472 2.798-6.297 6.238-6.297 3.439 0 6.236 2.825 6.236 6.297 0 3.474-2.797 6.3-6.236 6.3z"/>
        <path fill="url(#b)" d="M19.122 12.455L15.315 16.3l-1.45-1.461a1.28 1.28 0 0 0-1.823 0 1.31 1.31 0 0 0 .002 1.842l2.36 2.38a1.278 1.278 0 0 0 1.822 0l4.72-4.764a1.31 1.31 0 0 0 0-1.84 1.28 1.28 0 0 0-1.824 0z"/>
    </g>
</svg>
