<svg xmlns="http://www.w3.org/2000/svg" width="92" height="92" viewBox="0 0 92 92">
    <defs>
        <linearGradient id="a" x1="50%" x2="50%" y1="0%" y2="100%">
            <stop offset="0%" stop-color="#FAD961"/>
            <stop offset="100%" stop-color="#F76B1C"/>
        </linearGradient>
    </defs>
    <g fill="url(#a)" fill-rule="nonzero" transform="translate(-500 -2505)">
        <path d="M558.2 2528.3c-5.6 0-10.2 4.4-10.6 9.9l-11 2.9c-3.2-2.4-6.4-4.5-9.5-6-9.2-4.7-13.8-3-16-.9-6.9 6.9-10.7 16.1-10.7 25.8 0 9.8 3.8 19 10.7 25.9 7.2 7.1 16.6 10.7 26 10.7 9.4 0 18.8-3.5 25.9-10.6 4.8-4.9.8-15.2-6.9-25.4l2.9-11.1c5.5-.4 9.9-5 9.9-10.6-.1-5.9-4.8-10.6-10.7-10.6zm-9.4 15.8l-4 3.9c-.8-.8-1.7-1.5-2.5-2.3l6.5-1.6zm-33.5 37.7c-5.8-5.8-9-13.4-9-21.6 0-5.2 1.3-10.2 3.7-14.6 2.5 7.5 9.1 16.7 17 24.5 7.9 7.9 17.1 14.5 24.6 17-11.6 6.1-26.4 4.5-36.3-5.3zm41.4-9c2.7 5.4 2.7 8.3 2 9-2 2-13.9-2.5-27.4-15.9-13.4-13.4-17.9-25.4-15.9-27.4.7-.7 3.7-.7 9 2 1.5.7 3 1.6 4.5 2.6l-5.6 1.4c-1.6.4-2.6 2.1-2.2 3.7.4 1.4 1.6 2.2 2.9 2.2.2 0 .5 0 .8-.1l10.3-2.7c1.8 1.4 3.6 3 5.4 4.7l-7.7 7.7c-1.2 1.2-1.2 3.1 0 4.2.6.6 1.4.9 2.1.9.8 0 1.5-.3 2.1-.9l7.8-7.8c1.7 1.8 3.2 3.6 4.7 5.4l-2.7 10.4c-.4 1.6.5 3.2 2.2 3.7.3.1.5.1.8.1 1.3 0 2.6-.9 2.9-2.2l1.4-5.6c1 1.6 1.9 3 2.6 4.6zm-7.6-20.6l3.9-3.9-1.7 6.4c-.7-.7-1.4-1.6-2.2-2.5zm9.1-8.7c-2.5 0-4.6-2.1-4.6-4.6 0-2.5 2.1-4.6 4.6-4.6 2.5 0 4.6 2.1 4.6 4.6 0 2.6-2 4.6-4.6 4.6zM561.7 2505.4c-1.7 0-3 1.3-3 3s1.3 3 3 3c13.2 0 23.9 10.7 23.9 23.9 0 1.7 1.3 3 3 3s3-1.3 3-3c0-16.4-13.4-29.9-29.9-29.9z"/>
        <path d="M561.7 2517.6c-1.7 0-3 1.3-3 3s1.3 3 3 3c6.5 0 11.8 5.3 11.8 11.8 0 1.7 1.3 3 3 3s3-1.3 3-3c0-9.8-8-17.8-17.8-17.8z"/>
    </g>
</svg>
