<svg xmlns="http://www.w3.org/2000/svg" width="61" height="61" viewBox="0 0 61 61">
    <defs>
        <linearGradient id="a" x1="0%" x2="102%" y1="0%" y2="101%">
            <stop offset="0%" stop-color="#3023AE"/>
            <stop offset="100%" stop-color="#C86DD7"/>
        </linearGradient>
    </defs>
    <g fill="url(#a)" fill-rule="nonzero" transform="translate(-689 -282)">
        <path d="M742.365 324.625a.878.878 0 0 0-.957.19l-9.593 9.593a.878.878 0 0 0 .621 1.499h9.593a.878.878 0 0 0 .878-.878v-9.593a.878.878 0 0 0-.542-.81zm-7.81 9.526l6.596-6.596v6.596h-6.596z"/>
        <path d="M749.447 310.691a.893.893 0 0 0-.975.195l-2.682 2.69v-18.29c0-.497-.4-.899-.895-.899h-6.88l2.498-2.505v-.001l2.407-2.414c.515-.518.8-1.205.8-1.937 0-.731-.285-1.42-.8-1.937l-2.783-2.791a2.708 2.708 0 0 0-1.93-.802c-.73 0-1.415.285-1.93.802l-2.408 2.415-2.909 2.918-6.231 6.252h-27.792V285.5c0-.496-.4-.898-.895-.898-3.883 0-7.042 3.169-7.042 7.064v38.15c0 .067.008.132.021.194a6.774 6.774 0 0 0 2.028 4.354 6.732 6.732 0 0 0 4.733 1.932h27.36l-5.153 5.17a.9.9 0 0 0 .633 1.533h30.483a.897.897 0 0 0 .895-.898v-30.58a.899.899 0 0 0-.553-.83zm-11.904-26.619a.938.938 0 0 1 1.328 0l2.783 2.792a.946.946 0 0 1 0 1.333l-1.774 1.78-4.111-4.125 1.774-1.78zm-3.04 3.05l4.11 4.125-1.642 1.648-4.111-4.124 1.642-1.648zm13.707 34.492h-1.652a.897.897 0 0 0-.896.898c0 .496.401.899.896.899h1.652v2.706h-1.652a.897.897 0 0 0-.896.898c0 .497.401.899.896.899h1.652v2.706h-1.652a.897.897 0 0 0-.896.899c0 .496.401.898.896.898h1.652v2.706h-1.652a.897.897 0 0 0-.896.899c0 .496.401.898.896.898h1.652v4.284h-27.427l9.044-9.073a.9.9 0 0 0-.128-1.376.893.893 0 0 0-1.138.106l-3.629 3.64h-29.15a4.97 4.97 0 0 1-4.987-4.846c.005-.17.018-.34.04-.507v-.003c.01-.08.022-.159.036-.237l.004-.027a5.21 5.21 0 0 1 .213-.808l.033-.093c.022-.059.045-.117.069-.175l.02-.05c.03-.072.063-.143.096-.213l.004-.009a5.274 5.274 0 0 1 3.664-2.874c.005 0 .01-.002.014-.003.074-.015.149-.028.224-.04l.038-.007c.068-.01.136-.018.205-.026l.058-.007c.066-.007.133-.011.2-.015l.064-.005a5.26 5.26 0 0 1 .265-.007.897.897 0 0 0 .895-.898v-6.513c0-.496-.4-.898-.895-.898a.897.897 0 0 0-.896.898v5.672a6.984 6.984 0 0 0-4.356 2.305v-33.448a5.272 5.272 0 0 1 4.356-5.191v27.07a.897.897 0 0 0 1.79 0h.001v-17.363h26.001l-4.95 4.966a.9.9 0 0 0 0 1.27c.35.35.917.35 1.267 0l6.478-6.499 5.86-5.879 4.111 4.124-.482.484-.001.001-18.054 18.112-4.11-4.125 3.558-3.57a.9.9 0 0 0 0-1.27.893.893 0 0 0-1.266 0l-4.192 4.205a.901.901 0 0 0-.063.071l-.018.025a.98.98 0 0 0-.037.052l-.019.031a.85.85 0 0 0-.066.139l-.008.019-1.744 4.957-1.19 3.38a.91.91 0 0 0-.035.137H705a.897.897 0 0 0-.896.898c0 .496.401.898.896.898h24.794a.897.897 0 0 0 .896-.898c0-.496-.401-.898-.896-.898h-17.789l5.46-1.934.014-.006a.925.925 0 0 0 .062-.026l.025-.011a.867.867 0 0 0 .063-.036l.02-.011a.87.87 0 0 0 .063-.046l.016-.011a.9.9 0 0 0 .072-.065l18.425-18.483h7.774v19.189l-12.807 12.848a.9.9 0 0 0 .633 1.533.891.891 0 0 0 .633-.263l15.752-15.802v7.925zm-32.68-7.955l-2.565.908-1.708-1.714.905-2.573 3.368 3.379z"/>
    </g>
</svg>
