<svg xmlns="http://www.w3.org/2000/svg" width="32" height="47" viewBox="0 0 32 47">
    <defs>
        <linearGradient id="a" x1="50%" x2="50%" y1="0%" y2="100%">
            <stop offset="0%" stop-color="#FAD961"/>
            <stop offset="100%" stop-color="#F76B1C"/>
        </linearGradient>
        <linearGradient id="b" x1="50%" x2="50%" y1="0%" y2="10.271%">
            <stop offset="0%" stop-color="#FAD961"/>
            <stop offset="100%" stop-color="#F76B1C"/>
        </linearGradient>
    </defs>
    <g fill="none" fill-rule="nonzero">
        <path fill="url(#a)" d="M16 23c2.778 0 5-2.222 5-5s-2.222-5-5-5a4.98 4.98 0 0 0-5 5c0 2.778 2.222 5 5 5zm0-6.667c.944 0 1.667.723 1.667 1.667 0 .944-.723 1.667-1.667 1.667A1.637 1.637 0 0 1 14.333 18c0-.944.723-1.667 1.667-1.667z"/>
        <path fill="url(#a)" d="M3.57 34.24c.395 0 .79-.17 1.13-.45l3.503-3.2a26.535 26.535 0 0 0 2.881 5.445C12.101 37.495 14.418 38 16.283 38h.056c1.187 0 3.334-.225 4.35-1.684a31.138 31.138 0 0 0 3.052-5.725l3.503 3.2c.339.28.734.448 1.13.448.452 0 .904-.168 1.243-.561a8.838 8.838 0 0 0 2.373-6.455c-.113-2.414-1.13-4.603-2.938-6.23-.791-.674-1.921-1.572-3.277-2.133-.283-6.792-3.164-13.022-8.532-18.355C16.904.168 16.509 0 16.057 0c-.453 0-.905.168-1.187.505C9.559 5.838 6.62 12.068 6.338 18.86c-1.412.505-2.542 1.46-3.39 2.133C1.14 22.62.123 24.809.01 27.223a8.754 8.754 0 0 0 2.373 6.455c.283.393.735.561 1.187.561zm21.64-8.7c.17-1.011.339-1.965.395-2.92.34.225.735.562 1.13.898 1.187.955 1.808 2.358 1.865 3.873.056.955-.17 1.853-.509 2.639l-3.22-2.92c.113-.504.226-1.066.339-1.57zm-7.345 8.924c-.678.393-3.39.224-4.012-.28-.848-1.292-1.582-2.583-2.147-3.93 1.412.45 2.881.674 4.294.674 1.413 0 2.825-.225 4.181-.618-.621 1.46-1.412 2.807-2.316 4.154zM16 4.154a25.838 25.838 0 0 1 1.582 1.908 5.84 5.84 0 0 1-3.108 0c.452-.674.961-1.291 1.526-1.908zM12.553 8.98A8.977 8.977 0 0 0 16 9.654a9.477 9.477 0 0 0 3.503-.673c2.712 4.827 3.56 10.272 2.43 15.94-.057.337-.17.674-.226 1.067a11.104 11.104 0 0 1-11.414-.056c-.056-.28-.113-.617-.17-.898-1.13-5.725-.282-11.17 2.43-16.053zM5.152 23.462a5.508 5.508 0 0 1 1.186-.898c.113 1.01.226 2.02.452 3.087.113.506.226 1.01.34 1.46L3.908 30.03A5.38 5.38 0 0 1 3.4 27.39c0-1.515.622-2.918 1.752-3.929z"/>
        <path fill="url(#b)" d="M14 41.654v3.692c0 .937.65 1.654 1.5 1.654s1.5-.717 1.5-1.654v-3.692c0-.937-.65-1.654-1.5-1.654s-1.5.717-1.5 1.654zM19 39.78v3.44c0 1.009.65 1.78 1.5 1.78s1.5-.771 1.5-1.78v-3.44c0-1.009-.65-1.78-1.5-1.78s-1.5.771-1.5 1.78zM10 39.667v2.666c0 .945.65 1.667 1.5 1.667s1.5-.722 1.5-1.667v-2.666c0-.945-.65-1.667-1.5-1.667s-1.5.722-1.5 1.667z"/>
    </g>
</svg>
