<svg xmlns="http://www.w3.org/2000/svg" width="75" height="75" viewBox="0 0 75 75">
    <defs>
        <linearGradient id="a" x1="102%" x2="102%" y1="0%" y2="101%">
            <stop offset="0%" stop-color="#3023AE"/>
            <stop offset="57.85%" stop-color="#8E51C7"/>
            <stop offset="100%" stop-color="#C86DD7"/>
        </linearGradient>
    </defs>
    <path fill="url(#a)" fill-rule="nonzero" d="M72.207 35.106H61.596c-1.197-11.41-10.293-20.505-21.702-21.702V2.793c0-1.357-1.038-2.394-2.394-2.394s-2.394 1.037-2.394 2.394v10.611c-11.41 1.197-20.505 10.293-21.702 21.702H2.793c-1.357 0-2.394 1.038-2.394 2.394s1.037 2.394 2.394 2.394h10.611c1.197 11.41 10.293 20.505 21.702 21.702v10.611c0 1.357 1.038 2.394 2.394 2.394s2.394-1.037 2.394-2.394V61.596c11.41-1.197 20.505-10.293 21.702-21.702h10.611c1.357 0 2.394-1.038 2.394-2.394s-1.037-2.394-2.394-2.394zM39.894 56.73V48.43c0-1.357-1.038-2.394-2.394-2.394s-2.394 1.037-2.394 2.394v8.298c-8.776-1.117-15.718-8.059-16.835-16.835h8.298c1.357 0 2.394-1.038 2.394-2.394s-1.037-2.394-2.394-2.394h-8.298c1.117-8.776 8.059-15.718 16.835-16.835v8.298c0 1.357 1.038 2.394 2.394 2.394s2.394-1.037 2.394-2.394v-8.298c8.776 1.117 15.718 8.059 16.835 16.835H48.43c-1.357 0-2.394 1.038-2.394 2.394s1.037 2.394 2.394 2.394h8.298c-1.117 8.776-8.059 15.718-16.835 16.835z"/>
</svg>
