<svg xmlns="http://www.w3.org/2000/svg" width="74" height="77" viewBox="0 0 74 77">
    <defs>
        <linearGradient id="a" x1="50%" x2="50%" y1="-428.119%" y2="104.303%">
            <stop offset="0%" stop-color="#00EFD1"/>
            <stop offset="100%" stop-color="#00ACEA"/>
        </linearGradient>
        <linearGradient id="b" x1="50%" x2="50%" y1="-121.296%" y2="408.168%">
            <stop offset="0%" stop-color="#00EFD1"/>
            <stop offset="100%" stop-color="#00ACEA"/>
        </linearGradient>
        <linearGradient id="c" x1="50%" x2="50%" y1="-.197%" y2="140.577%">
            <stop offset="0%" stop-color="#00EFD1"/>
            <stop offset="100%" stop-color="#00ACEA"/>
        </linearGradient>
        <linearGradient id="d" x1="50%" x2="50%" y1="-554.593%" y2="195.829%">
            <stop offset="0%" stop-color="#00EFD1"/>
            <stop offset="100%" stop-color="#00ACEA"/>
        </linearGradient>
        <linearGradient id="e" x1="50%" x2="50%" y1="-580.791%" y2="226.867%">
            <stop offset="0%" stop-color="#00EFD1"/>
            <stop offset="100%" stop-color="#00ACEA"/>
        </linearGradient>
        <linearGradient id="f" x1="50%" x2="50%" y1="-634.568%" y2="247.873%">
            <stop offset="0%" stop-color="#00EFD1"/>
            <stop offset="100%" stop-color="#00ACEA"/>
        </linearGradient>
    </defs>
    <g fill="none" fill-rule="nonzero">
        <path fill="url(#a)" d="M71.426 71.546H66.68C66.6 66.252 62.257 62 56.948 62a9.691 9.691 0 0 0-8.928 5.855c-2.413.401-4.585 1.765-6.113 3.69h-7.561c-1.368-2.086-3.7-3.45-6.194-3.53-1.206-3.208-4.343-5.454-7.882-5.454-2.494 0-4.827 1.123-6.435 2.888-.402-.08-.885-.08-1.287-.08-3.941 0-7.32 2.566-8.446 6.176H2.574c-1.367 0-2.413 1.043-2.413 2.406 0 1.364 1.046 2.406 2.413 2.406h68.852c1.367 0 2.413-1.042 2.413-2.406 0-1.363-1.046-2.406-2.413-2.406zm-61.935 0c.724-.802 1.77-1.364 2.976-1.364.483 0 .966.08 1.368.24 1.206.562 2.574 0 3.137-1.122.563-1.203 1.85-1.925 3.217-1.925 1.93 0 3.54 1.524 3.62 3.369 0 .24.08.481.16.802H9.492zm42.229 0c.16-.24.321-.562.402-.963.482-2.165 2.493-3.77 4.826-3.77 2.735 0 4.826 2.086 4.906 4.733H51.72z"/>
        <path fill="url(#b)" d="M37 32.484a7.199 7.199 0 0 0 7.24-7.218 7.199 7.199 0 0 0-7.24-7.22 7.199 7.199 0 0 0-7.24 7.22A7.199 7.199 0 0 0 37 32.484zm0-9.625c1.367 0 2.413 1.043 2.413 2.407 0 1.363-1.046 2.406-2.413 2.406-1.367 0-2.413-1.043-2.413-2.406 0-1.364 1.046-2.407 2.413-2.407z"/>
        <path fill="url(#c)" d="M19.304 49.569c.563 0 1.126-.24 1.609-.642l4.987-4.572c1.046 2.727 2.413 5.294 4.102 7.78 1.448 2.086 4.746 2.808 7.4 2.808h.08c1.69 0 4.746-.321 6.194-2.407a44.552 44.552 0 0 0 4.344-8.18l4.987 4.571c.482.401 1.045.642 1.608.642.644 0 1.287-.24 1.77-.802 2.332-2.487 3.539-5.856 3.378-9.224-.16-3.45-1.609-6.577-4.183-8.903-1.126-.963-2.734-2.246-4.665-3.048-.402-9.706-4.504-18.609-12.145-26.228-.483-.482-1.046-.722-1.69-.722-.643 0-1.287.24-1.689.722-7.56 7.62-11.743 16.522-12.145 26.228-2.011.722-3.62 2.085-4.826 3.048-2.574 2.326-4.022 5.454-4.183 8.903-.16 3.449 1.046 6.737 3.378 9.224.402.561 1.046.802 1.69.802zm30.807-12.433c.241-1.443.482-2.807.563-4.17.483.32 1.046.802 1.609 1.283 1.689 1.363 2.574 3.369 2.654 5.534.08 1.364-.241 2.647-.724 3.77l-4.585-4.17c.161-.723.322-1.525.483-2.247zM39.654 49.89c-.965.561-4.826.32-5.71-.401-1.207-1.845-2.253-3.69-3.057-5.615 2.01.642 4.102.962 6.113.962 2.01 0 4.022-.32 5.952-.882-.885 2.086-2.01 4.01-3.298 5.936zM37 6.577a36.89 36.89 0 0 1 2.252 2.727 8.284 8.284 0 0 1-4.424 0c.644-.962 1.368-1.845 2.172-2.727zm-4.907 6.898c1.529.642 3.218.963 4.907.963 1.69 0 3.378-.321 4.987-.963 3.86 6.898 5.067 14.678 3.459 22.78-.08.48-.242.962-.322 1.523-4.987 2.968-11.261 2.968-16.248-.08-.08-.401-.16-.882-.241-1.283-1.609-8.182-.402-15.962 3.458-22.94zM21.557 34.169a7.844 7.844 0 0 1 1.689-1.284c.16 1.444.321 2.888.643 4.412.161.722.322 1.444.483 2.085l-4.585 4.171a7.712 7.712 0 0 1-.724-3.77c0-2.165.885-4.17 2.494-5.614z"/>
        <path fill="url(#d)" d="M34.587 59.434v5.374c0 1.364 1.046 2.407 2.413 2.407 1.367 0 2.413-1.043 2.413-2.407v-5.374c0-1.363-1.046-2.406-2.413-2.406-1.367 0-2.413 1.043-2.413 2.406z"/>
        <path fill="url(#e)" d="M41.183 57.91v4.653c0 1.363 1.045 2.406 2.413 2.406 1.367 0 2.413-1.043 2.413-2.406V57.91c0-1.363-1.046-2.406-2.413-2.406-1.368 0-2.413 1.043-2.413 2.406z"/>
        <path fill="url(#f)" d="M27.991 57.91v3.85c0 1.364 1.046 2.407 2.413 2.407 1.368 0 2.413-1.043 2.413-2.407v-3.85c0-1.363-1.045-2.406-2.413-2.406-1.367 0-2.413 1.043-2.413 2.406z"/>
    </g>
</svg>
