<svg xmlns="http://www.w3.org/2000/svg" width="39" height="32" viewBox="0 0 39 32">
    <path fill="#FFF" fill-rule="nonzero" d="M38.311.286A1.59 1.59 0 0 0 36.517.3a16.222 16.222 0 0 1-3.775 1.952A8.863 8.863 0 0 0 27.416.022a8.885 8.885 0 0 0-6.441 2.131 8.714 8.714 0 0 0-3.05 6.649C11.43 8.229 7.326 4.17 4.435.6a1.585 1.585 0 0 0-2.693.395C1.67 1.173-.02 5.419.412 10.556c.364 4.3 2.304 9.931 9.145 13.675a17.7 17.7 0 0 1-7.919 1.544 1.573 1.573 0 0 0-1.58 1.135c-.196.694.115 1.431.752 1.781C4.723 30.838 9.04 31.983 13.294 32h.099c4.121 0 8.103-1.049 11.52-3.035a21.188 21.188 0 0 0 7.824-7.948c1.993-3.552 3.004-7.657 3.004-12.205-.001-.267-.014-.534-.04-.8a13.919 13.919 0 0 0 3.254-6.071 1.547 1.547 0 0 0-.644-1.655zM32.93 6.373c-.374.364-.54.89-.441 1.4.067.345.1.698.102 1.044 0 7.673-3.38 14.038-9.274 17.465-4.615 2.682-10.134 3.306-15.51 1.885l.167-.046a20.625 20.625 0 0 0 5.894-2.722 1.55 1.55 0 0 0 .681-1.456 1.56 1.56 0 0 0-.98-1.277C7.445 20.246 4.08 16.12 3.561 10.399c-.194-2.132.053-4.118.363-5.606C5.192 6.14 6.772 7.594 8.657 8.812c3.258 2.104 6.906 3.171 10.843 3.171.87 0 1.575-.696 1.575-1.556v-1.61-.01a5.62 5.62 0 0 1 1.968-4.305 5.73 5.73 0 0 1 4.154-1.375 5.712 5.712 0 0 1 3.922 1.93c.407.462 1.05.646 1.643.469.436-.13.867-.274 1.29-.433-.338.453-.714.88-1.123 1.28z"/>
</svg>
