<svg xmlns="http://www.w3.org/2000/svg" width="232" height="223" viewBox="0 0 232 223">
    <g fill="#2EEBBE" fill-rule="nonzero">
        <path d="M116.5 125c34.51 0 62.5-28.034 62.5-62.596S151.009 0 116.5 0 54 28.034 54 62.404C54 96.774 81.99 125 116.5 125zm0-108.679c25.307 0 46.012 20.737 46.012 46.083s-20.705 46.083-46.012 46.083c-25.307 0-46.012-20.737-46.012-46.083S91.193 16.32 116.5 16.32zM8.19 223h215.62c4.571 0 8.19-3.741 8.19-8.467C232 170.23 197.143 134 154.095 134h-76.19C35.048 134 0 170.033 0 214.533 0 219.26 3.619 223 8.19 223zm69.715-72.067h76.19c31.238 0 56.952 24.023 60.953 55.133H16.952c4-30.913 29.715-55.133 60.953-55.133z"/>
    </g>
</svg>
