<svg xmlns="http://www.w3.org/2000/svg" width="78" height="88" viewBox="0 0 78 88">
    <defs>
        <linearGradient id="a" x1="49.953%" x2="49.953%" y1="0%" y2="100%">
            <stop offset="0%" stop-color="#00EFD1"/>
            <stop offset="100%" stop-color="#00ACEA"/>
        </linearGradient>
    </defs>
    <path fill="url(#a)" fill-rule="nonzero" d="M75.7 56.6c.2-2.4.5-5.3.9-8.4 1.2-9.8 2.5-20.8-.3-27.1C72.1 9.4 59.5.9 46.2.9 35.8.9 25.9 6.1 19.8 14.6H3.1c-1.7 0-3 1.3-3 3v28.8c0 1.7 1.3 3 3 3h4L5 54.8c-.3.9-.3 1.9.2 2.7.5.8 1.3 1.3 2.3 1.4l7.5.7 2.8 13.5c.3 1.5 1.6 2.5 3.1 2.4l10.5-.7L31 84c0 .8.3 1.6.8 2.2.6.6 1.3.9 2.1.9l40.4-.6c.8 0 1.6-.4 2.2-1 .6-.6.8-1.5.8-2.3l-1.6-16.9c-.2-3-.2-6.2 0-9.7zM46.2 6.9c10.7 0 21.2 7 24.5 16.4 0 .1.1.2.1.3.6 1.4 1 3.2 1.1 5.4H47.3v-1.4c0-7.2-5.8-13-12.9-13h-6.7c4.8-4.8 11.5-7.7 18.5-7.7zM34.4 20.6c3.8 0 6.9 3.1 6.9 7v8.8c0 3.9-3.1 7-7 7H18.1V20.6h16.3zm-28.3 0h6v22.8h-6V20.6zm31 60.5l.4-9.3c0-.8-.3-1.7-.9-2.3-.6-.6-1.4-.9-2.3-.8l-11.2.7-2.7-13.1c-.3-1.3-1.3-2.3-2.7-2.4l-5.7-.6 1.5-3.9h20.7c7.2 0 13-5.8 13-13V35h24.6c-.2 4.1-.8 8.5-1.2 12.5-.4 3.1-.7 6.1-.9 8.7-.2 3.8-.2 7.3.1 10.7l1.3 13.7-34 .5z"/>
</svg>
