<svg xmlns="http://www.w3.org/2000/svg" width="69" height="64" viewBox="0 0 69 64">
    <defs>
        <linearGradient id="a" x1="50%" x2="50%" y1="0%" y2="100%">
            <stop offset="0%" stop-color="#00EFD1"/>
            <stop offset="100%" stop-color="#00ACEA"/>
        </linearGradient>
    </defs>
    <path fill="url(#a)" fill-rule="nonzero" d="M66.68 0H34.576c-1.315 0-2.32 1.017-2.32 2.347V24.88c0 1.33 1.005 2.347 2.32 2.347h13.847v3.286H7.426V10.406h3.868c-.232.782-.31 1.643-.31 2.504 0 2.738 1.083 5.32 2.94 7.276l.232.235c.464.469 1.005.704 1.624.704.62 0 1.238-.235 1.625-.704L28.466 9.232c.929-.939.929-2.425 0-3.286l-.232-.235a10.05 10.05 0 0 0-14.31 0H5.028c-1.315 0-2.32 1.018-2.32 2.348v22.454H2.32C1.006 30.513 0 31.531 0 32.861V61.653C0 62.983 1.006 64 2.32 64c1.316 0 2.321-1.017 2.321-2.347V43.658h58.635v17.995c0 1.33 1.005 2.347 2.32 2.347s2.321-1.017 2.321-2.347V38.337c0-.234 0-.39-.077-.547v-4.93c0-1.33-1.006-2.347-2.32-2.347H53.064v-3.286h13.614c1.315 0 2.321-1.017 2.321-2.347V2.347A2.34 2.34 0 0 0 66.68 0zM17.172 8.998c1.083-1.096 2.475-1.565 3.867-1.565.774 0 1.47.156 2.244.47l-7.194 7.275c-.929-2.034-.542-4.537 1.083-6.18zm46.025 29.965H4.641v-3.756h58.557v3.756zm1.16-16.43h-27.46V4.694h27.46v17.839z"/>
</svg>
