<svg xmlns="http://www.w3.org/2000/svg" width="42" height="42" viewBox="0 0 42 42">
    <defs>
        <linearGradient id="a" x1="50%" x2="50%" y1="0%" y2="100%">
            <stop offset="0%" stop-color="#00EFD1"/>
            <stop offset="100%" stop-color="#00ACEA"/>
        </linearGradient>
    </defs>
    <path fill="url(#a)" fill-rule="nonzero" d="M21 0C9.403 0 0 9.403 0 21s9.403 21 21 21 21-9.403 21-21S32.597 0 21 0zm17.709 18.858c-2.037 1.097-4.284 1.933-6.582 2.612V21a31.663 31.663 0 0 0-5.38-16.873c6.425 2.194 11.126 7.836 11.962 14.731zM22.149 3.187C26.433 8.149 28.89 14.47 29.045 21c0 .418-.052.836-.052 1.254-2.926.627-5.694.992-7.993 1.045-2.299-.053-5.067-.366-7.993-1.045-.052-.418-.052-.836-.052-1.254.157-6.582 2.612-12.85 6.896-17.813.365 0 .783-.053 1.149-.053s.784 0 1.15.053zm-6.948.94A31.663 31.663 0 0 0 9.821 21v.47a38.395 38.395 0 0 1-6.582-2.612A17.975 17.975 0 0 1 15.2 4.127zM3.187 22.306c2.194 1.045 4.597 1.88 6.947 2.507a31.264 31.264 0 0 0 5.067 13.112C8.567 35.627 3.71 29.567 3.187 22.306zM19.85 38.813a28.417 28.417 0 0 1-6.426-13.268c2.769.522 5.381.836 7.523.888h.104a41.748 41.748 0 0 0 7.523-.888 28.417 28.417 0 0 1-6.426 13.268c-.365 0-.783.053-1.149.053s-.784 0-1.15-.053zm6.948-.94a31.264 31.264 0 0 0 5.067-13.112c2.35-.627 4.753-1.462 6.947-2.507-.522 7.313-5.38 13.373-12.014 15.62z"/>
</svg>
